<svg xmlns="http://www.w3.org/2000/svg">
  <defs>
    <symbol viewBox="0 0 256 256" id="funnel">
      <path
        d="M230.6,49.53A15.81,15.81,0,0,0,216,40H40A16,16,0,0,0,28.19,66.76l.08.09L96,139.17V216a16,16,0,0,0,24.87,13.32l32-21.34A16,16,0,0,0,160,194.66V139.17l67.74-72.32.08-.09A15.8,15.8,0,0,0,230.6,49.53ZM40,56h0Zm106.18,74.58A8,8,0,0,0,144,136v58.66L112,216V136a8,8,0,0,0-2.16-5.47L40,56H216Z">
      </path>
    </symbol>

    <symbol viewBox="0 0 256 256" id="engine">
      <path
        d="M240,104H227.31L192,68.69A15.86,15.86,0,0,0,180.69,64H140V40h24a8,8,0,0,0,0-16H100a8,8,0,0,0,0,16h24V64H64A16,16,0,0,0,48,80v52H24V108a8,8,0,0,0-16,0v64a8,8,0,0,0,16,0V148H48v20.69A15.86,15.86,0,0,0,52.69,180L92,219.31A15.86,15.86,0,0,0,103.31,224h77.38A15.86,15.86,0,0,0,192,219.31L227.31,184H240a16,16,0,0,0,16-16V120A16,16,0,0,0,240,104Zm0,64H224a8,8,0,0,0-5.66,2.34L180.69,208H103.31L64,168.69V80H180.69l37.65,37.66A8,8,0,0,0,224,120h16Z">
      </path>
    </symbol>

    <symbol viewBox="0 0 256 256" id="call">
      <path
        d="M144.27,45.93a8,8,0,0,1,9.8-5.66,86.22,86.22,0,0,1,61.66,61.66,8,8,0,0,1-5.66,9.8A8.23,8.23,0,0,1,208,112a8,8,0,0,1-7.73-5.94,70.35,70.35,0,0,0-50.33-50.33A8,8,0,0,1,144.27,45.93Zm-2.33,41.8c13.79,3.68,22.65,12.54,26.33,26.33A8,8,0,0,0,176,120a8.23,8.23,0,0,0,2.07-.27,8,8,0,0,0,5.66-9.8c-5.12-19.16-18.5-32.54-37.66-37.66a8,8,0,1,0-4.13,15.46Zm81.94,95.35A56.26,56.26,0,0,1,168,232C88.6,232,24,167.4,24,88A56.26,56.26,0,0,1,72.92,32.12a16,16,0,0,1,16.62,9.52l21.12,47.15,0,.12A16,16,0,0,1,109.39,104c-.18.27-.37.52-.57.77L88,129.45c7.49,15.22,23.41,31,38.83,38.51l24.34-20.71a8.12,8.12,0,0,1,.75-.56,16,16,0,0,1,15.17-1.4l.13.06,47.11,21.11A16,16,0,0,1,223.88,183.08Zm-15.88-2s-.07,0-.11,0h0l-47-21.05-24.35,20.71a8.44,8.44,0,0,1-.74.56,16,16,0,0,1-15.75,1.14c-18.73-9.05-37.4-27.58-46.46-46.11a16,16,0,0,1,1-15.7,6.13,6.13,0,0,1,.57-.77L96,95.15l-21-47a.61.61,0,0,1,0-.12A40.2,40.2,0,0,0,40,88,128.14,128.14,0,0,0,168,216,40.21,40.21,0,0,0,208,181.07Z">
      </path>
    </symbol>

    <symbol viewBox="0 0 256 256" id="pin">
      <path
        d="M200,224H150.54A266.56,266.56,0,0,0,174,200.25c27.45-31.57,42-64.85,42-96.25a88,88,0,0,0-176,0c0,31.4,14.51,64.68,42,96.25A266.56,266.56,0,0,0,105.46,224H56a8,8,0,0,0,0,16H200a8,8,0,0,0,0-16ZM56,104a72,72,0,0,1,144,0c0,57.23-55.47,105-72,118C111.47,209,56,161.23,56,104Zm112,0a40,40,0,1,0-40,40A40,40,0,0,0,168,104Zm-64,0a24,24,0,1,1,24,24A24,24,0,0,1,104,104Z">
      </path>
    </symbol>

    <symbol viewBox="0 0 256 256" id="up">
      <path
        d="M229.66,114.34l-96-96a8,8,0,0,0-11.32,0l-96,96A8,8,0,0,0,32,128H72v80a16,16,0,0,0,16,16h80a16,16,0,0,0,16-16V128h40a8,8,0,0,0,5.66-13.66ZM176,112a8,8,0,0,0-8,8v88H88V120a8,8,0,0,0-8-8H51.31L128,35.31,204.69,112Z">
      </path>
    </symbol>

    <symbol viewBox="0 0 256 256" id="gear">
      <path
        d="M128,80a48,48,0,1,0,48,48A48.05,48.05,0,0,0,128,80Zm0,80a32,32,0,1,1,32-32A32,32,0,0,1,128,160Zm88-29.84q.06-2.16,0-4.32l14.92-18.64a8,8,0,0,0,1.48-7.06,107.21,107.21,0,0,0-10.88-26.25,8,8,0,0,0-6-3.93l-23.72-2.64q-1.48-1.56-3-3L186,40.54a8,8,0,0,0-3.94-6,107.71,107.71,0,0,0-26.25-10.87,8,8,0,0,0-7.06,1.49L130.16,40Q128,40,125.84,40L107.2,25.11a8,8,0,0,0-7.06-1.48A107.6,107.6,0,0,0,73.89,34.51a8,8,0,0,0-3.93,6L67.32,64.27q-1.56,1.49-3,3L40.54,70a8,8,0,0,0-6,3.94,107.71,107.71,0,0,0-10.87,26.25,8,8,0,0,0,1.49,7.06L40,125.84Q40,128,40,130.16L25.11,148.8a8,8,0,0,0-1.48,7.06,107.21,107.21,0,0,0,10.88,26.25,8,8,0,0,0,6,3.93l23.72,2.64q1.49,1.56,3,3L70,215.46a8,8,0,0,0,3.94,6,107.71,107.71,0,0,0,26.25,10.87,8,8,0,0,0,7.06-1.49L125.84,216q2.16.06,4.32,0l18.64,14.92a8,8,0,0,0,7.06,1.48,107.21,107.21,0,0,0,26.25-10.88,8,8,0,0,0,3.93-6l2.64-23.72q1.56-1.48,3-3L215.46,186a8,8,0,0,0,6-3.94,107.71,107.71,0,0,0,10.87-26.25,8,8,0,0,0-1.49-7.06Zm-16.1-6.5a73.93,73.93,0,0,1,0,8.68,8,8,0,0,0,1.74,5.48l14.19,17.73a91.57,91.57,0,0,1-6.23,15L187,173.11a8,8,0,0,0-5.1,2.64,74.11,74.11,0,0,1-6.14,6.14,8,8,0,0,0-2.64,5.1l-2.51,22.58a91.32,91.32,0,0,1-15,6.23l-17.74-14.19a8,8,0,0,0-5-1.75h-.48a73.93,73.93,0,0,1-8.68,0,8,8,0,0,0-5.48,1.74L100.45,215.8a91.57,91.57,0,0,1-15-6.23L82.89,187a8,8,0,0,0-2.64-5.1,74.11,74.11,0,0,1-6.14-6.14,8,8,0,0,0-5.1-2.64L46.43,170.6a91.32,91.32,0,0,1-6.23-15l14.19-17.74a8,8,0,0,0,1.74-5.48,73.93,73.93,0,0,1,0-8.68,8,8,0,0,0-1.74-5.48L40.2,100.45a91.57,91.57,0,0,1,6.23-15L69,82.89a8,8,0,0,0,5.1-2.64,74.11,74.11,0,0,1,6.14-6.14A8,8,0,0,0,82.89,69L85.4,46.43a91.32,91.32,0,0,1,15-6.23l17.74,14.19a8,8,0,0,0,5.48,1.74,73.93,73.93,0,0,1,8.68,0,8,8,0,0,0,5.48-1.74L155.55,40.2a91.57,91.57,0,0,1,15,6.23L173.11,69a8,8,0,0,0,2.64,5.1,74.11,74.11,0,0,1,6.14,6.14,8,8,0,0,0,5.1,2.64l22.58,2.51a91.32,91.32,0,0,1,6.23,15l-14.19,17.74A8,8,0,0,0,199.87,123.66Z">
      </path>
    </symbol>

    <symbol viewBox="0 0 256 256" id="tire">
      <path
        d="M149.26,159.26C155.09,173.82,163.5,176,168,176s12.91-2.18,18.74-16.74c3.39-8.48,5.26-19.58,5.26-31.26s-1.87-22.78-5.26-31.26C180.91,82.18,172.5,80,168,80s-12.91,2.18-18.74,16.74C145.87,105.22,144,116.32,144,128S145.87,150.78,149.26,159.26ZM168,96.2c2.62,2.06,8,13,8,31.8s-5.38,29.74-8,31.8c-2.62-2.06-8-13-8-31.8S165.38,98.26,168,96.2ZM232,216H196.41C213.12,197.73,224,165.47,224,128c0-58.32-26.35-104-60-104H92C58.35,24,32,69.68,32,128S58.35,232,92,232H232a8,8,0,0,0,0-16ZM193.74,63.93C202.93,80.91,208,103.67,208,128s-5.07,47.09-14.26,64.07C185.38,207.5,174.82,216,164,216s-21.38-8.5-29.74-23.93C125.07,175.09,120,152.33,120,128s5.07-47.09,14.26-64.07C142.62,48.5,153.18,40,164,40S185.38,48.5,193.74,63.93ZM48,128c0-2.5.07-5,.17-7.44L80,97.83l24.43,17.45c-.28,4.16-.43,8.41-.43,12.72a179.89,179.89,0,0,0,3.07,33.5l-22.42-16a8,8,0,0,0-9.3,0l-23.74,17A161,161,0,0,1,48,128ZM62.26,63.93C70.62,48.5,81.18,40,92,40h39.59c-11.9,13-20.84,33.12-25,57.16L84.65,81.49a8,8,0,0,0-9.3,0L50.49,99.25C52.85,86,56.83,74,62.26,63.93Zm0,128.14a100.08,100.08,0,0,1-5.94-13.32L80,161.83l33.94,24.24c4.6,12,10.6,22.22,17.65,29.93H92C81.18,216,70.62,207.5,62.26,192.07Z">
      </path>
    </symbol>

    <symbol viewBox="0 0 256 256" id="wrench">
      <path
        d="M226.76,69a8,8,0,0,0-12.84-2.88l-40.3,37.19-17.23-3.7-3.7-17.23,37.19-40.3A8,8,0,0,0,187,29.24,72,72,0,0,0,88,96,72.34,72.34,0,0,0,94,124.94L33.79,177c-.15.12-.29.26-.43.39a32,32,0,0,0,45.26,45.26c.13-.13.27-.28.39-.42L131.06,162A72,72,0,0,0,232,96,71.56,71.56,0,0,0,226.76,69ZM160,152a56.14,56.14,0,0,1-27.07-7,8,8,0,0,0-9.92,1.77L67.11,211.51a16,16,0,0,1-22.62-22.62L109.18,133a8,8,0,0,0,1.77-9.93,56,56,0,0,1,58.36-82.31l-31.2,33.81a8,8,0,0,0-1.94,7.1L141.83,108a8,8,0,0,0,6.14,6.14l26.35,5.66a8,8,0,0,0,7.1-1.94l33.81-31.2A56.06,56.06,0,0,1,160,152Z">
      </path>
    </symbol>

    <symbol viewBox="0 0 256 256" id="tornado">
      <path
        d="M232,40a8,8,0,0,1-8,8H56a8,8,0,0,1,0-16H224A8,8,0,0,1,232,40ZM184,72a8,8,0,0,0-8-8H32a8,8,0,0,0,0,16H176A8,8,0,0,0,184,72Zm-16,32a8,8,0,0,0-8-8H56a8,8,0,0,0,0,16H160A8,8,0,0,0,168,104Zm16,32a8,8,0,0,0-8-8H88a8,8,0,0,0,0,16h88A8,8,0,0,0,184,136Zm0,24H120a8,8,0,0,0,0,16h64a8,8,0,0,0,0-16Zm-24,32H128a8,8,0,0,0,0,16h32a8,8,0,0,0,0-16Zm-32,32H112a8,8,0,0,0,0,16h16a8,8,0,0,0,0-16Z">
      </path>
    </symbol>

    <symbol viewBox="0 0 256 256" id="twitter">
      <path
        d="M247.39,68.94A8,8,0,0,0,240,64H209.57A48.66,48.66,0,0,0,168.1,40a46.91,46.91,0,0,0-33.75,13.7A47.9,47.9,0,0,0,120,88v6.09C79.74,83.47,46.81,50.72,46.46,50.37a8,8,0,0,0-13.65,4.92c-4.31,47.79,9.57,79.77,22,98.18a110.93,110.93,0,0,0,21.88,24.2c-15.23,17.53-39.21,26.74-39.47,26.84a8,8,0,0,0-3.85,11.93c.75,1.12,3.75,5.05,11.08,8.72C53.51,229.7,65.48,232,80,232c70.67,0,129.72-54.42,135.75-124.44l29.91-29.9A8,8,0,0,0,247.39,68.94Zm-45,29.41a8,8,0,0,0-2.32,5.14C196,166.58,143.28,216,80,216c-10.56,0-18-1.4-23.22-3.08,11.51-6.25,27.56-17,37.88-32.48A8,8,0,0,0,92,169.08c-.47-.27-43.91-26.34-44-96,16,13,45.25,33.17,78.67,38.79A8,8,0,0,0,136,104V88a32,32,0,0,1,9.6-22.92A30.94,30.94,0,0,1,167.9,56c12.66.16,24.49,7.88,29.44,19.21A8,8,0,0,0,204.67,80h16Z">
      </path>
    </symbol>

    <symbol viewBox="0 0 256 256" id="mastodon">
      <path
        d="M184,32H72A40,40,0,0,0,32,72V192a40,40,0,0,0,40,40h88a8,8,0,0,0,0-16H72a24,24,0,0,1-24-24v-8H184a40,40,0,0,0,40-40V72A40,40,0,0,0,184,32Zm24,112a24,24,0,0,1-24,24H48V72A24,24,0,0,1,72,48H184a24,24,0,0,1,24,24Zm-24-40v32a8,8,0,0,1-16,0V104a16,16,0,0,0-32,0v32a8,8,0,0,1-16,0V104a16,16,0,0,0-32,0v32a8,8,0,0,1-16,0V104a32,32,0,0,1,56-21.13A32,32,0,0,1,184,104Z">
      </path>
    </symbol>

    <symbol viewBox="0 0 256 256" id="facebook">
      <path
        d="M128,24A104,104,0,1,0,232,128,104.11,104.11,0,0,0,128,24Zm8,191.63V152h24a8,8,0,0,0,0-16H136V112a16,16,0,0,1,16-16h16a8,8,0,0,0,0-16H152a32,32,0,0,0-32,32v24H96a8,8,0,0,0,0,16h24v63.63a88,88,0,1,1,16,0Z">
      </path>
    </symbol>

    <symbol viewBox="0 0 256 256" id="clock">
      <path
        d="M128,24A104,104,0,1,0,232,128,104.11,104.11,0,0,0,128,24Zm0,192a88,88,0,1,1,88-88A88.1,88.1,0,0,1,128,216Zm64-88a8,8,0,0,1-8,8H128a8,8,0,0,1-8-8V72a8,8,0,0,1,16,0v48h48A8,8,0,0,1,192,128Z">
      </path>
    </symbol>

    <symbol viewBox="0 0 256 256" id="letter">
      <path stroke="none" d="M0 0h24v24H0z" fill="none"></path>
      <path d="M7 20v-16h5.5a4 4 0 0 1 0 9h-5.5"></path>
    </symbol>

    <symbol viewBox="0 0 256 256" id="envelope">
      <path stroke="none" d="M0 0h24v24H0z" fill="none" />
      <rect x={3} y={5} width={18} height={14} rx={2} />
      <polyline points="3 7 12 13 21 7" />
    </symbol>
  </defs>
</svg>

